# xmcd
#
# Track frame offsets:
#	150
#	19037
#	41814
#	64489
#	81651
#	102643
#	119306
#	140146
#	155203
#	176233
#	192130
#	210793
#	229633
#	252858
#	274973
#
# Disc length: 3887 seconds
#
# Revision: 0
# Processed by: cddbd v1.5.2PL0 Copyright (c) Steve Scherf et al.
# Submitted via: EasyCDDAExtractor 15.3.0.1
#
DISCID=e50f2d0f
DTITLE=Gloria Estefan - Soy Mujer
DYEAR=2015
DGENRE=Latin
TTITLE0=No Llores
TTITLE1=Por Un Beso
TTITLE2=Me Voy
TTITLE3=No Pretendo
TTITLE4=Mi Tierra
TTITLE5=Hablas De Mi
TTITLE6=Con Los Años Que Me Quedan
TTITLE7=Renacer
TTITLE8=No Sera Facil
TTITLE9=No Me Vuelvo A Enamorar
TTITLE10=Si Voy A Perderte
TTITLE11=Desde La Oscuridad
TTITLE12=Corazon Prohibido
TTITLE13=El Dia Que Me Quieras
TTITLE14=Sonrie
EXTD=
EXTT0=
EXTT1=
EXTT2=
EXTT3=
EXTT4=
EXTT5=
EXTT6=
EXTT7=
EXTT8=
EXTT9=
EXTT10=
EXTT11=
EXTT12=
EXTT13=
EXTT14=
PLAYORDER=
